<?xml version="1.0" encoding="utf-8"?>
<!-- Generator: Adobe Illustrator 16.0.0, SVG Export Plug-In . SVG Version: 6.00 Build 0)  -->
<!DOCTYPE svg PUBLIC "-//W3C//DTD SVG 1.1//EN" "http://www.w3.org/Graphics/SVG/1.1/DTD/svg11.dtd">
<svg version="1.1" id="圖層_1" xmlns="http://www.w3.org/2000/svg" xmlns:xlink="http://www.w3.org/1999/xlink" x="0px" y="0px"
	 width="1920px" height="1080px" viewBox="0 0 1920 1080" enable-background="new 0 0 1920 1080" xml:space="preserve">
<g>
	<path fill-rule="evenodd" clip-rule="evenodd" fill="#F1F1F1" d="M28.772,683.075c0.559-3.764,1.134-7.527,1.674-11.294
		c2.343-16.353,9.121-31.417,16.634-46.301c43.418-86.011,90.096-170.607,138.309-254.537c8.39-14.605,16.728-29.265,25.989-43.43
		c13.922-21.295,33.774-36.762,60.999-42.604c39.086-8.387,71.806,2.038,97.013,29.862c7.75,8.554,14.481,18.088,20.101,27.895
		c28.486,49.715,56.809,99.512,84.481,149.592c19.259,34.852,37.563,70.129,55.925,105.37c8.977,17.229,18.371,34.412,25.389,52.301
		c20.925,53.334-12.072,123.918-86.963,140.698c-33.229,7.444-64.76,1.702-94.719-11.927
		c-27.678-12.592-50.571-30.764-71.796-50.727c-2.094-1.969-3.946-4.145-7.193-7.584c-2.167,2.756-3.356,4.726-5.012,6.303
		c-17.142,16.34-35.483,31.441-56.685,43.578c-27.379,15.672-56.981,24.888-89.821,23.3c-26.689-1.289-50.323-10.236-70.708-25.63
		c-24.125-18.217-37.686-41.692-42.188-69.482c-0.519-3.205-0.956-6.419-1.431-9.63C28.772,686.912,28.772,684.993,28.772,683.075z
		 M295.407,470.956c6.082,0.46,11.946,0.503,17.643,1.4c48.779,7.676,85.313,43.48,78.656,96.521
		c-2.639,21.027-10.346,40.714-20.773,59.626c-13.346,24.207-30.413,46.236-49.295,67.185c-2.364,2.623-2.158,4.171,0.301,6.511
		c14.401,13.706,29.335,26.894,46.545,37.806c21.883,13.878,45.358,23.792,73.093,23.236c27.725-0.557,50.336-10.534,66.979-30.04
		c21.641-25.362,24.063-53.809,10.227-82.282c-20.243-41.657-41.96-82.769-64.058-123.677
		c-26.635-49.312-54.158-98.243-81.666-147.174c-8.031-14.287-16.21-28.685-26.271-41.842
		c-19.378-25.343-56.69-31.032-84.484-14.056c-11.748,7.175-19.623,17.278-25.858,28.381
		c-38.738,68.977-77.614,137.894-115.833,207.101c-16.327,29.566-31.368,59.707-46.622,89.737
		c-7.718,15.193-11.231,31.31-8.612,47.979c5.721,36.434,39.093,65.498,84.485,66.509c20.923,0.466,40.079-5.389,58.001-14.761
		c23.823-12.457,43.682-29.067,62.183-47.131c2.064-2.015,1.471-3.343-0.088-5.28c-10.999-13.668-22.506-27.056-32.63-41.228
		c-19.359-27.098-34.28-55.948-38.296-88.388c-2.112-17.058,0.248-33.75,9.188-49.089
		C226.561,486.529,256.833,472.399,295.407,470.956z M295.336,673.571c1.527-1.465,2.418-2.194,3.146-3.036
		c14.544-16.816,27.931-34.325,38.776-53.269c11.74-20.505,21.004-41.674,19.57-65.359c-0.969-15.995-7.745-29.559-22.067-39.42
		c-14.29-9.839-30.76-13.092-48.539-10.633c-24.138,3.339-41.38,14.643-48.977,35.797c-5.921,16.489-3.202,32.996,2.371,49.161
		c9.414,27.308,26.08,51.161,44.781,74.004C287.806,664.979,291.416,669.01,295.336,673.571z"/>
	<path fill-rule="evenodd" clip-rule="evenodd" fill="#F1F1F1" d="M1702.265,486.239c1.712-1.136,2.72-1.673,3.549-2.378
		c13.637-11.568,29.991-16.843,48.647-17.623c54.169-2.266,103.173,30.459,112.312,82.001c7.252,40.899-5.615,76.318-44.155,101.404
		c-26.522,17.265-56.62,22.857-88.928,15.072c-10.685-2.574-19.955-7.63-27.929-14.528c-0.956-0.828-2.014-1.565-4.251-3.291
		c0,3.331,0.045,5.544-0.008,7.754c-0.137,5.646-3.04,8.27-9.4,8.296c-12.884,0.053-25.771-0.128-38.649,0.099
		c-4.251,0.076-5.477-1.059-5.468-4.871c0.127-55.348,0.087-110.696,0.087-166.046c0-36.168,0.068-72.337-0.095-108.504
		c-0.018-4.046,1.027-5.519,5.843-5.425c14.104,0.273,28.222,0.244,42.329,0.013c4.545-0.074,5.669,1.357,5.652,5.21
		c-0.144,32.195-0.089,64.39-0.061,96.585C1701.742,481.832,1702.04,483.658,1702.265,486.239z M1701.722,566.22
		c0,10.135-0.236,20.275,0.156,30.397c0.106,2.755,1.369,6.021,3.36,8.083c15.523,16.073,35.687,20.365,58.232,16.826
		c52.271-8.208,60.836-55.401,43.48-83.963c-9.533-15.691-25.573-23.496-44.798-26.379c-21.865-3.28-40.45,2.723-56.196,16.392
		c-3.033,2.633-4.424,5.584-4.321,9.478C1701.892,546.771,1701.721,556.498,1701.722,566.22z"/>
	<path fill-rule="evenodd" clip-rule="evenodd" fill="#F1F1F1" d="M1229.604,647.017c0,3.445,0.075,5.935-0.015,8.421
		c-0.187,5.144-2.763,7.471-8.595,7.501c-13.19,0.071-26.385-0.078-39.572,0.089c-3.721,0.048-4.686-1.151-4.67-4.306
		c0.113-24.112,0.062-48.226,0.061-72.34c0-67.406,0-134.813,0.001-202.221c0-5.854,0.007-5.862,6.521-5.864
		c13.959-0.004,27.919,0.116,41.874-0.072c4.074-0.056,5.219,1.14,5.204,4.718c-0.135,32.333-0.079,64.667-0.078,97
		c0,1.758,0,3.515,0,6.414c2.031-1.317,3.245-1.941,4.243-2.772c13.486-11.253,29.567-16.654,47.888-17.294
		c33.085-1.158,61.546,8.416,84.514,29.748c16.994,15.785,26.466,34.957,29.168,56.774c3.318,26.811-1.995,51.868-19.635,74.141
		c-18.647,23.547-44.42,36.644-76.399,40.239c-19.593,2.202-38.248,0.112-55.173-9.535
		C1239.97,654.823,1235.569,651.192,1229.604,647.017z M1230.336,566.447c0,9.588,0.3,19.187-0.126,28.76
		c-0.217,4.856,1.693,8.396,5.328,11.64c16.03,14.312,35.5,18.189,57.114,14.557c40.069-6.736,56.196-37.126,49.294-67.948
		c-4.823-21.54-20.035-34.977-43.492-40.706c-25.24-6.165-47.27-0.825-65.316,16.296c-1.664,1.58-2.617,4.345-2.679,6.586
		C1230.181,545.898,1230.337,556.174,1230.336,566.447z"/>
	<path fill-rule="evenodd" clip-rule="evenodd" fill="#F1F1F1" d="M845.522,486.521c0-3.362-0.06-5.612,0.012-7.858
		c0.159-4.976,2.693-7.327,8.196-7.354c13.342-0.065,26.685,0.06,40.025-0.087c3.667-0.041,5.079,1.198,4.741,4.336
		c-0.073,0.679-0.006,1.369-0.006,2.054c0,59.724,0.001,119.447-0.001,179.17c0,6.178-0.01,6.181-6.724,6.182
		c-12.115,0.002-24.23,0.011-36.346-0.004c-7.418-0.009-9.868-2.216-9.9-8.865c-0.009-1.984-0.001-3.97-0.001-7.055
		c-2.088,1.502-3.16,2.158-4.082,2.953c-13.797,11.906-30.527,17.484-49.46,17.894c-30.644,0.663-57.561-7.884-79.918-26.867
		c-17.35-14.731-27.769-32.964-31.896-53.879c-5.293-26.821-1.059-52.427,15.254-75.744c17.689-25.283,43.533-39.899,76.516-44.176
		c17.046-2.21,34.083-2.011,49.916,4.95c6.921,3.043,13.043,7.542,19.507,11.407C842.425,484.217,843.387,485.004,845.522,486.521z
		 M845.516,567.15c0-8.896-0.674-17.847,0.202-26.675c0.775-7.812-3.345-12.57-9.357-17.052c-23.4-17.444-56.9-15.521-79.204-1.823
		c-14.945,9.179-22.578,22.456-24.311,38.34c-1.908,17.491,2.225,33.588,16.431,46.514c11.685,10.632,26.382,15.265,42.886,16.377
		c20.2,1.359,37.019-4.376,50.326-17.946c1.721-1.754,2.821-4.58,2.893-6.941C845.692,587.686,845.515,577.416,845.516,567.15z"/>
	<path fill-rule="evenodd" clip-rule="evenodd" fill="#F1F1F1" d="M1472.203,486.728c2.964-2.267,4.765-3.698,6.628-5.063
		c13.792-10.095,29.727-14.795,47.438-15.423c21.409-0.759,41.357,2.858,59.236,14.052c19.72,12.346,30.614,29.432,31.153,50.561
		c1.092,42.84,0.826,85.707,1.221,128.561c0.031,3.294-1.691,3.843-4.788,3.828c-14.567-0.075-29.138-0.146-43.705,0.039
		c-4.126,0.052-5.173-1.256-5.161-4.778c0.117-35.614,0.186-71.23-0.061-106.844c-0.041-6.088-1.164-12.257-2.602-18.231
		c-3.14-13.031-12.522-20.651-27.1-23.085c-21.1-3.52-39.312,1.783-55.082,14.556c-3.079,2.494-4.276,5.243-4.266,8.986
		c0.127,41.23,0.081,82.463,0.077,123.693c-0.001,5.375-0.013,5.381-6.095,5.383c-14.263,0.003-28.526-0.09-42.786,0.063
		c-3.649,0.039-4.727-1.042-4.722-4.256c0.085-61.093,0.085-122.187,0-183.28c-0.005-3.203,1.059-4.323,4.711-4.273
		c12.113,0.162,24.23,0.036,36.346,0.073c6.76,0.021,8.89,2.016,9.087,8.221C1471.799,481.502,1471.988,483.491,1472.203,486.728z"
		/>
	<path fill-rule="evenodd" clip-rule="evenodd" fill="#F1F1F1" d="M1077.531,486.547c3.417-2.535,5.685-4.281,8.028-5.943
		c18.609-13.19,39.727-16.883,62.78-13.163c2.678,0.432,4.782,1.058,4.73,4.341c-0.203,12.602-0.076,25.208-0.101,37.812
		c-0.002,0.788-0.258,1.575-0.396,2.374c-6.83-0.701-13.437-1.628-20.082-2.015c-19-1.107-36.052,3.198-50.394,14.891
		c-3.074,2.506-4.329,5.26-4.319,8.998c0.11,41.1,0.071,82.2,0.066,123.3c-0.001,6.06-0.015,6.067-6.899,6.07
		c-13.958,0.005-27.916-0.083-41.872,0.055c-3.731,0.037-5.063-0.978-5.057-4.449c0.099-61.102,0.093-122.205,0.009-183.308
		c-0.004-3.183,1.021-4.338,4.697-4.293c13.188,0.157,26.381,0.04,39.57,0.074c6.479,0.017,9.15,2.437,9.232,8.219
		C1077.554,481.406,1077.531,483.304,1077.531,486.547z"/>
	<path fill-rule="evenodd" clip-rule="evenodd" fill="#F1F1F1" d="M988.278,567.166c0,30.278-0.08,60.557,0.097,90.835
		c0.023,4.018-1.346,5.116-5.736,5.047c-14.26-0.226-28.528-0.165-42.792-0.029c-3.587,0.035-5.176-0.65-5.17-4.275
		c0.109-61.105,0.103-122.21,0.013-183.315c-0.005-3.277,1.222-4.242,4.788-4.208c14.569,0.138,29.144,0.178,43.713-0.02
		c4.114-0.056,5.183,1.167,5.166,4.721C988.221,506.335,988.278,536.751,988.278,567.166z"/>
	<path fill-rule="evenodd" clip-rule="evenodd" fill="#F1F1F1" d="M961.263,442.806c-20.225-0.066-36.573-14.621-36.571-32.56
		c0.003-17.951,16.524-32.845,36.595-32.549c19.162,0.282,36.704,12.578,36.783,32.506
		C998.155,431.764,978.238,443.581,961.263,442.806z"/>
</g>
</svg>
